<svg width="192" height="223" viewBox="0 0 192 223" fill="none" xmlns="http://www.w3.org/2000/svg">
<path d="M41.552 107.06C36.3227 107.06 31.482 106.141 27.03 104.304C22.6487 102.396 18.7973 99.746 15.476 96.354C12.2253 92.962 9.68133 88.9693 7.844 84.376C6.07733 79.712 5.194 74.624 5.194 69.112C5.194 63.6 6.07733 58.5473 7.844 53.954C9.68133 49.29 12.2253 45.262 15.476 41.87C18.7973 38.4073 22.6487 35.7573 27.03 33.92C31.482 32.012 36.3227 31.058 41.552 31.058C46.852 31.058 51.6927 32.012 56.074 33.92C60.526 35.7573 64.3773 38.4073 67.628 41.87C70.9493 45.262 73.4933 49.29 75.26 53.954C77.0973 58.5473 78.016 63.6 78.016 69.112C78.016 74.5533 77.0973 79.606 75.26 84.27C73.4933 88.8633 70.9493 92.8913 67.628 96.354C64.3773 99.746 60.526 102.396 56.074 104.304C51.6927 106.141 46.852 107.06 41.552 107.06ZM41.552 98.898C45.58 98.898 49.29 98.1913 52.682 96.778C56.1447 95.294 59.1127 93.2093 61.586 90.524C64.0593 87.8387 65.9673 84.694 67.31 81.09C68.7233 77.4153 69.43 73.4227 69.43 69.112C69.43 64.7307 68.7233 60.738 67.31 57.134C65.9673 53.4593 64.0593 50.2793 61.586 47.594C59.1127 44.9087 56.1447 42.824 52.682 41.34C49.29 39.856 45.58 39.114 41.552 39.114C37.524 39.114 33.7787 39.856 30.316 41.34C26.924 42.824 23.9913 44.9087 21.518 47.594C19.0447 50.2793 17.1367 53.4593 15.794 57.134C14.4513 60.738 13.78 64.7307 13.78 69.112C13.78 73.4227 14.4513 77.4153 15.794 81.09C17.1367 84.694 19.0447 87.8387 21.518 90.524C23.9913 93.2093 26.924 95.294 30.316 96.778C33.7787 98.1913 37.524 98.898 41.552 98.898ZM83.5446 106V50.668H91.4946L91.7066 65.402L90.8586 63.388C91.6359 60.9147 92.8726 58.618 94.5686 56.498C96.3352 54.378 98.4199 52.682 100.823 51.41C103.225 50.138 105.875 49.502 108.773 49.502C109.974 49.502 111.105 49.608 112.165 49.82C113.225 49.9613 114.108 50.1733 114.815 50.456L112.589 59.36C111.67 58.936 110.716 58.6533 109.727 58.512C108.808 58.3 107.925 58.194 107.077 58.194C104.674 58.194 102.519 58.618 100.611 59.466C98.7026 60.314 97.0772 61.5153 95.7346 63.07C94.3919 64.554 93.3672 66.2853 92.6606 68.264C91.9539 70.2427 91.6006 72.3627 91.6006 74.624V106H83.5446ZM134.911 107.06C130.105 107.06 125.759 105.823 121.873 103.35C117.986 100.806 114.912 97.3787 112.651 93.068C110.389 88.6867 109.259 83.74 109.259 78.228C109.259 72.6453 110.425 67.6987 112.757 63.388C115.089 59.0773 118.198 55.6853 122.085 53.212C126.042 50.7387 130.459 49.502 135.335 49.502C138.232 49.502 140.917 49.926 143.391 50.774C145.864 51.622 148.055 52.8233 149.963 54.378C151.941 55.862 153.567 57.6287 154.839 59.678C156.181 61.6567 157.1 63.812 157.595 66.144L155.263 64.978L155.581 50.668H163.531V106H155.475V92.432L157.595 91.054C157.1 93.174 156.146 95.2233 154.733 97.202C153.319 99.11 151.588 100.806 149.539 102.29C147.56 103.774 145.299 104.94 142.755 105.788C140.281 106.636 137.667 107.06 134.911 107.06ZM136.713 99.428C140.387 99.428 143.673 98.5447 146.571 96.778C149.468 94.9407 151.729 92.432 153.355 89.252C155.051 86.0013 155.899 82.3267 155.899 78.228C155.899 74.1293 155.051 70.49 153.355 67.31C151.729 64.13 149.468 61.6213 146.571 59.784C143.673 57.9467 140.387 57.028 136.713 57.028C132.967 57.028 129.646 57.9467 126.749 59.784C123.922 61.6213 121.661 64.13 119.965 67.31C118.339 70.49 117.527 74.1293 117.527 78.228C117.527 82.256 118.339 85.8953 119.965 89.146C121.59 92.326 123.851 94.8347 126.749 96.672C129.646 98.5093 132.967 99.428 136.713 99.428ZM173.719 106V50.668H181.669V106H173.719ZM177.641 38.69C175.662 38.69 174.143 38.1953 173.083 37.206C172.094 36.146 171.599 34.7327 171.599 32.966C171.599 31.1993 172.129 29.786 173.189 28.726C174.249 27.666 175.733 27.136 177.641 27.136C179.549 27.136 181.033 27.666 182.093 28.726C183.153 29.7153 183.683 31.1287 183.683 32.966C183.683 34.662 183.153 36.04 182.093 37.1C181.033 38.16 179.549 38.69 177.641 38.69Z" fill="white"/>
<path d="M30.136 197.06C24.9067 197.06 20.278 195.894 16.25 193.562C12.2927 191.159 8.58267 187.096 5.12 181.372L11.904 177.132C13.812 180.171 15.7553 182.609 17.734 184.446C19.7833 186.213 21.868 187.485 23.988 188.262C26.108 189.039 28.3693 189.428 30.772 189.428C33.74 189.428 36.4607 188.721 38.934 187.308C41.4073 185.824 43.386 183.845 44.87 181.372C46.354 178.828 47.096 176.001 47.096 172.892C47.096 169.712 46.4247 166.921 45.082 164.518C43.7393 162.115 41.8667 160.243 39.464 158.9C37.132 157.557 34.4113 156.886 31.302 156.886C30.1713 156.886 28.9347 157.027 27.592 157.31C26.32 157.522 24.9067 157.981 23.352 158.688C21.868 159.324 20.2427 160.278 18.476 161.55L16.038 154.978L42.22 126.464L44.022 129.538H10.314V121.8H50.382L52.502 126.04L27.062 153.176L24.942 151.056C25.8607 150.491 26.956 150.031 28.228 149.678C29.5 149.254 30.772 149.042 32.044 149.042C35.2947 149.042 38.3333 149.643 41.16 150.844C43.9867 152.045 46.4247 153.741 48.474 155.932C50.594 158.052 52.2547 160.525 53.456 163.352C54.6573 166.179 55.258 169.253 55.258 172.574C55.258 177.167 54.1627 181.337 51.972 185.082C49.7813 188.757 46.778 191.689 42.962 193.88C39.146 196 34.8707 197.06 30.136 197.06ZM62.6035 196V121.8H90.5875C95.6755 121.8 100.304 122.719 104.473 124.556C108.713 126.323 112.388 128.867 115.497 132.188C118.607 135.509 121.009 139.431 122.705 143.954C124.401 148.477 125.249 153.459 125.249 158.9C125.249 164.341 124.401 169.359 122.705 173.952C121.009 178.475 118.607 182.397 115.497 185.718C112.459 188.969 108.819 191.513 104.579 193.35C100.339 195.117 95.6755 196 90.5875 196H62.6035ZM70.8715 189.428L69.9175 187.944H90.0575C93.9441 187.944 97.5128 187.273 100.763 185.93C104.085 184.517 106.911 182.538 109.243 179.994C111.646 177.379 113.483 174.305 114.755 170.772C116.098 167.239 116.769 163.281 116.769 158.9C116.769 154.519 116.098 150.561 114.755 147.028C113.483 143.495 111.646 140.456 109.243 137.912C106.841 135.297 104.014 133.319 100.763 131.976C97.5128 130.563 93.9441 129.856 90.0575 129.856H69.5995L70.8715 128.584V189.428Z" fill="white"/>
<g clip-path="url(#clip0_5_57)">
<path d="M42.0581 107.06C36.8994 107.06 32.1242 106.141 27.7323 104.304C23.4102 102.396 19.6109 99.7461 16.3345 96.3541C13.1277 92.9621 10.6181 88.9694 8.8056 84.3761C7.0628 79.7121 6.19141 74.6241 6.19141 69.1121C6.19141 63.6001 7.0628 58.5474 8.8056 53.9541C10.6181 49.2901 13.1277 45.2621 16.3345 41.8701C19.6109 38.4074 23.4102 35.7574 27.7323 33.9201C32.1242 32.0121 36.8994 31.0581 42.0581 31.0581C47.2865 31.0581 52.0617 32.0121 56.3838 33.9201C60.7757 35.7574 64.5749 38.4074 67.7817 41.8701C71.0581 45.2621 73.5677 49.2901 75.3106 53.9541C77.123 58.5474 78.0293 63.6001 78.0293 69.1121C78.0293 74.5534 77.123 79.6061 75.3106 84.2701C73.5677 88.8634 71.0581 92.8914 67.7817 96.3541C64.5749 99.7461 60.7757 102.396 56.3838 104.304C52.0617 106.141 47.2865 107.06 42.0581 107.06ZM42.0581 98.8981C46.0317 98.8981 49.6915 98.1914 53.0377 96.7781C56.4536 95.2941 59.3815 93.2094 61.8214 90.5241C64.2612 87.8388 66.1435 84.6941 67.468 81.0901C68.8622 77.4154 69.5594 73.4228 69.5594 69.1121C69.5594 64.7308 68.8622 60.7381 67.468 57.1341C66.1435 53.4594 64.2612 50.2794 61.8214 47.5941C59.3815 44.9088 56.4536 42.8241 53.0377 41.3401C49.6915 39.8561 46.0317 39.1141 42.0581 39.1141C38.0845 39.1141 34.3898 39.8561 30.9739 41.3401C27.6278 42.8241 24.7347 44.9088 22.2948 47.5941C19.8549 50.2794 17.9727 53.4594 16.6482 57.1341C15.3236 60.7381 14.6614 64.7308 14.6614 69.1121C14.6614 73.4228 15.3236 77.4154 16.6482 81.0901C17.9727 84.6941 19.8549 87.8388 22.2948 90.5241C24.7347 93.2094 27.6278 95.2941 30.9739 96.7781C34.3898 98.1914 38.0845 98.8981 42.0581 98.8981Z" fill="white"/>
<path d="M31.0942 44.6077C24.7807 38.2353 9.64576 61.8664 12.2482 66.5129C14.8507 71.1595 11.8906 68.3715 11.3645 66.5129C10.8383 64.6543 12.4606 60.4281 13.3374 58.5474C14.872 54.454 18.1383 46.0681 18.9275 45.2715C19.7167 44.475 26.2714 39.408 29.45 36.9741H44.905L58.7158 41.6207L70.5537 52.9052C76.5 64 69.5 80.3849 69.5 68.5C69.5 62.5 67 63.4381 60 56.5C51.4242 48 43.2948 53.3437 45.8915 69.1681C46.9716 75.7505 39.9405 82.5972 35.6978 79.4569C33.736 78.0048 33.855 73.4549 34.2133 68C34.7558 59.7401 35.8472 49.4051 31.0942 44.6077Z" fill="white"/>
</g>
<defs>
<clipPath id="clip0_5_57">
<rect width="73" height="77" fill="white" transform="translate(6 31)"/>
</clipPath>
</defs>
</svg>
