<svg width="58" height="67" viewBox="0 0 58 67" fill="none" xmlns="http://www.w3.org/2000/svg">
<g id="Frame">
<path id="Vector" d="M12.4843 32.1659C10.9131 32.1659 9.45873 31.8898 8.12114 31.3378C6.80478 30.7646 5.64764 29.9684 4.64976 28.9493C3.67309 27.9301 2.90876 26.7305 2.35674 25.3505C1.82594 23.9492 1.56055 22.4205 1.56055 20.7645C1.56055 19.1084 1.82594 17.5903 2.35674 16.2103C2.90876 14.809 3.67309 13.5988 4.64976 12.5796C5.64764 11.5393 6.80478 10.7431 8.12114 10.1911C9.45873 9.61782 10.9131 9.33119 12.4843 9.33119C14.0766 9.33119 15.531 9.61782 16.8474 10.1911C18.185 10.7431 19.3421 11.5393 20.3187 12.5796C21.3166 13.5988 22.081 14.809 22.6118 16.2103C23.1638 17.5903 23.4398 19.1084 23.4398 20.7645C23.4398 22.3993 23.1638 23.9174 22.6118 25.3187C22.081 26.6987 21.3166 27.9089 20.3187 28.9493C19.3421 29.9684 18.185 30.7646 16.8474 31.3378C15.531 31.8898 14.0766 32.1659 12.4843 32.1659ZM12.4843 29.7136C13.6945 29.7136 14.8091 29.5013 15.8282 29.0767C16.8686 28.6308 17.7603 28.0044 18.5034 27.1977C19.2465 26.3909 19.8198 25.446 20.2232 24.3632C20.6478 23.2592 20.8602 22.0596 20.8602 20.7645C20.8602 19.4481 20.6478 18.2485 20.2232 17.1657C19.8198 16.0616 19.2465 15.1062 18.5034 14.2994C17.7603 13.4926 16.8686 12.8663 15.8282 12.4204C14.8091 11.9745 13.6945 11.7516 12.4843 11.7516C11.274 11.7516 10.1488 11.9745 9.10841 12.4204C8.08929 12.8663 7.20817 13.4926 6.46507 14.2994C5.72197 15.1062 5.14871 16.0616 4.7453 17.1657C4.34189 18.2485 4.1402 19.4481 4.1402 20.7645C4.1402 22.0596 4.34189 23.2592 4.7453 24.3632C5.14871 25.446 5.72197 26.3909 6.46507 27.1977C7.20817 28.0044 8.08929 28.6308 9.10841 29.0767C10.1488 29.5013 11.274 29.7136 12.4843 29.7136ZM25.1009 31.8474V15.223H27.4894L27.5531 19.6498L27.2983 19.0447C27.5319 18.3016 27.9034 17.6115 28.413 16.9746C28.9438 16.3376 29.5701 15.8281 30.2921 15.4459C31.0138 15.0637 31.81 14.8727 32.6807 14.8727C33.0415 14.8727 33.3813 14.9045 33.6998 14.9682C34.0183 15.0107 34.2836 15.0744 34.496 15.1593L33.8272 17.8345C33.5511 17.7071 33.2645 17.6222 32.9673 17.5797C32.6912 17.516 32.4259 17.4842 32.1711 17.4842C31.4492 17.4842 30.8017 17.6115 30.2284 17.8663C29.6551 18.1211 29.1667 18.482 28.7633 18.9491C28.3599 19.395 28.052 19.9152 27.8397 20.5097C27.6274 21.1042 27.5213 21.7411 27.5213 22.4205V31.8474H25.1009ZM40.5338 32.1659C39.0899 32.1659 37.7841 31.7942 36.6166 31.0512C35.4487 30.2869 34.5251 29.2571 33.8458 27.962C33.1662 26.6456 32.8267 25.1594 32.8267 23.5033C32.8267 21.826 33.177 20.3398 33.8777 19.0447C34.5783 17.7495 35.5124 16.7304 36.6803 15.9873C37.8691 15.2442 39.1962 14.8727 40.6612 14.8727C41.5316 14.8727 42.3383 15.0001 43.0816 15.2548C43.8246 15.5096 44.4829 15.8705 45.0562 16.3376C45.6505 16.7835 46.139 17.3143 46.5212 17.93C46.9244 18.5245 47.2005 19.1721 47.3492 19.8727L46.6485 19.5224L46.7441 15.223H49.1326V31.8474H46.7122V27.7709L47.3492 27.3569C47.2005 27.9938 46.9138 28.6096 46.4893 29.2041C46.0645 29.7773 45.5444 30.2869 44.9288 30.7327C44.3342 31.1786 43.6549 31.5289 42.8905 31.7837C42.1472 32.0385 41.3618 32.1659 40.5338 32.1659ZM41.0752 29.8728C42.1791 29.8728 43.1663 29.6075 44.037 29.0767C44.9074 28.5246 45.5868 27.7709 46.0753 26.8155C46.5848 25.8388 46.8396 24.7348 46.8396 23.5033C46.8396 22.2719 46.5848 21.1785 46.0753 20.223C45.5868 19.2676 44.9074 18.5139 44.037 17.9619C43.1663 17.4099 42.1791 17.1338 41.0752 17.1338C39.9497 17.1338 38.952 17.4099 38.0816 17.9619C37.2322 18.5139 36.5529 19.2676 36.0433 20.223C35.5548 21.1785 35.3108 22.2719 35.3108 23.5033C35.3108 24.7135 35.5548 25.807 36.0433 26.7836C36.5315 27.7391 37.2109 28.4928 38.0816 29.0448C38.952 29.5968 39.9497 29.8728 41.0752 29.8728ZM52.1936 31.8474V15.223H54.5822V31.8474H52.1936ZM53.372 11.6242C52.7774 11.6242 52.321 11.4756 52.0025 11.1783C51.7054 10.8599 51.5567 10.4352 51.5567 9.90445C51.5567 9.37364 51.7159 8.94902 52.0344 8.63055C52.3529 8.31207 52.7987 8.15283 53.372 8.15283C53.9452 8.15283 54.3911 8.31207 54.7096 8.63055C55.028 8.92778 55.1873 9.35243 55.1873 9.90445C55.1873 10.414 55.028 10.828 54.7096 11.1465C54.3911 11.465 53.9452 11.6242 53.372 11.6242Z" fill="white"/>
<path id="Vector_2" d="M9.0541 59.2065C7.48297 59.2065 6.09228 58.8562 4.88208 58.1555C3.69311 57.4335 2.57844 56.2128 1.53809 54.493L3.57633 53.2191C4.14958 54.1322 4.73345 54.8647 5.32794 55.4166C5.94365 55.9475 6.57 56.3297 7.20695 56.5631C7.8439 56.7966 8.5233 56.9135 9.24519 56.9135C10.1369 56.9135 10.9544 56.701 11.6974 56.2765C12.4405 55.8306 13.035 55.236 13.4809 54.493C13.9268 53.7287 14.1497 52.8793 14.1497 51.9452C14.1497 50.9898 13.948 50.1513 13.5446 49.4293C13.1412 48.7073 12.5786 48.1449 11.8567 47.7414C11.156 47.3379 10.3386 47.1363 9.40443 47.1363C9.06471 47.1363 8.69318 47.1786 8.28976 47.2636C7.90759 47.3273 7.48297 47.4653 7.01586 47.6777C6.57 47.8688 6.08168 48.1554 5.55088 48.5376L4.81838 46.563L12.6847 37.996L13.2261 38.9196H3.09862V36.5947H15.137L15.7739 37.8686L8.13053 46.0216L7.49357 45.3846C7.7696 45.2149 8.09868 45.0767 8.48085 44.9706C8.86302 44.8432 9.24519 44.7795 9.62736 44.7795C10.604 44.7795 11.517 44.9601 12.3662 45.3209C13.2155 45.6818 13.948 46.1914 14.5637 46.8496C15.2007 47.4866 15.6996 48.2296 16.0606 49.079C16.4215 49.9283 16.602 50.8519 16.602 51.8497C16.602 53.2297 16.2729 54.4825 15.6147 55.6077C14.9565 56.7119 14.0542 57.5928 12.9077 58.2511C11.7611 58.888 10.4766 59.2065 9.0541 59.2065ZM18.8089 58.888V36.5947H27.2167C28.7453 36.5947 30.136 36.8708 31.3885 37.4228C32.6624 37.9537 33.7666 38.718 34.7007 39.7158C35.6351 40.7136 36.3568 41.8919 36.8663 43.2509C37.3759 44.6098 37.6307 46.1066 37.6307 47.7414C37.6307 49.3761 37.3759 50.8838 36.8663 52.2637C36.3568 53.6226 35.6351 54.801 34.7007 55.7988C33.7879 56.7755 32.6943 57.5399 31.4204 58.0918C30.1465 58.6227 28.7453 58.888 27.2167 58.888H18.8089ZM21.293 56.9135L21.0064 56.4676H27.0574C28.2251 56.4676 29.2974 56.266 30.2739 55.8625C31.272 55.4379 32.121 54.8434 32.8217 54.079C33.5437 53.2934 34.0956 52.3698 34.4777 51.3083C34.8813 50.2468 35.0829 49.0576 35.0829 47.7414C35.0829 46.4251 34.8813 45.2359 34.4777 44.1744C34.0956 43.113 33.5437 42.1999 32.8217 41.4356C32.1 40.6499 31.2506 40.0556 30.2739 39.6521C29.2974 39.2276 28.2251 39.0151 27.0574 39.0151H20.9109L21.293 38.633V56.9135Z" fill="white"/>
<g id="Clip path group">
<mask id="mask0_209_1922" style="mask-type:luminance" maskUnits="userSpaceOnUse" x="1" y="9" width="23" height="24">
<g id="clip0_87_87">
<path id="Vector_3" d="M23.7355 9.31396H1.80273V32.4485H23.7355V9.31396Z" fill="white"/>
</g>
</mask>
<g mask="url(#mask0_209_1922)">
<g id="Group">
<path id="Vector_4" d="M12.6364 32.1662C11.0865 32.1662 9.65182 31.8901 8.33228 31.3382C7.03371 30.7649 5.89222 29.9687 4.90783 28.9496C3.94435 27.9305 3.19034 26.7309 2.64578 25.3509C2.12216 23.9496 1.86035 22.4209 1.86035 20.7648C1.86035 19.1087 2.12216 17.5907 2.64578 16.2106C3.19034 14.8093 3.94435 13.5991 4.90783 12.58C5.89222 11.5396 7.03371 10.7434 8.33228 10.1914C9.65182 9.61817 11.0865 9.33154 12.6364 9.33154C14.2073 9.33154 15.642 9.61817 16.9406 10.1914C18.2601 10.7434 19.4016 11.5396 20.3651 12.58C21.3494 13.5991 22.1035 14.8093 22.6271 16.2106C23.1716 17.5907 23.4439 19.1087 23.4439 20.7648C23.4439 22.3996 23.1716 23.9177 22.6271 25.319C22.1035 26.6991 21.3494 27.9093 20.3651 28.9496C19.4016 29.9687 18.2601 30.7649 16.9406 31.3382C15.642 31.8901 14.2073 32.1662 12.6364 32.1662ZM12.6364 29.714C13.8303 29.714 14.9299 29.5016 15.9352 29.077C16.9615 28.6311 17.8412 28.0048 18.5743 27.198C19.3073 26.3912 19.8729 25.4464 20.2708 24.3636C20.6897 23.2595 20.8992 22.06 20.8992 20.7648C20.8992 19.4485 20.6897 18.2489 20.2708 17.166C19.8729 16.062 19.3073 15.1066 18.5743 14.2998C17.8412 13.493 16.9615 12.8666 15.9352 12.4208C14.9299 11.9749 13.8303 11.752 12.6364 11.752C11.4426 11.752 10.3325 11.9749 9.30621 12.4208C8.30088 12.8666 7.43165 13.493 6.69859 14.2998C5.96553 15.1066 5.40002 16.062 5.00208 17.166C4.6041 18.2489 4.40515 19.4485 4.40515 20.7648C4.40515 22.06 4.6041 23.2595 5.00208 24.3636C5.40002 25.4464 5.96553 26.3912 6.69859 27.198C7.43165 28.0048 8.30088 28.6311 9.30621 29.077C10.3325 29.5016 11.4426 29.714 12.6364 29.714Z" fill="white"/>
<path id="Vector_5" d="M9.34242 13.4024C7.44554 11.4878 2.89827 18.5877 3.68017 19.9838C4.46209 21.3798 3.57273 20.5422 3.41466 19.9838C3.25657 19.4254 3.74399 18.1556 4.00742 17.5906C4.46849 16.3607 5.44984 13.8412 5.68696 13.6018C5.92407 13.3625 7.89342 11.8401 8.84842 11.1089H13.4919L17.6413 12.505L21.198 15.8954C22.9845 19.2288 20.8814 24.1516 20.8814 20.5808C20.8814 18.7781 20.1303 19.06 18.0271 16.9754C15.4505 14.4216 13.0081 16.0271 13.7882 20.7815C14.1128 22.7592 12.0003 24.8163 10.7256 23.8728C10.1361 23.4365 10.1719 22.0695 10.2796 20.4306C10.4425 17.9489 10.7705 14.8438 9.34242 13.4024Z" fill="white"/>
</g>
</g>
</g>
</g>
</svg>
