<svg width="32" height="32" viewBox="0 0 32 32" fill="none" xmlns="http://www.w3.org/2000/svg">
<g id="SearchOutlined">
<path id="Vector" d="M30.1996 28.2322L20.9246 18.9572C22.3639 17.0965 23.1424 14.8215 23.1424 12.4286C23.1424 9.56436 22.0246 6.87864 20.0032 4.85364C17.9817 2.82864 15.2889 1.71436 12.4282 1.71436C9.56744 1.71436 6.87458 2.83221 4.85315 4.85364C2.82815 6.87507 1.71387 9.56436 1.71387 12.4286C1.71387 15.2894 2.83172 17.9822 4.85315 20.0036C6.87458 22.0286 9.56387 23.1429 12.4282 23.1429C14.821 23.1429 17.0924 22.3644 18.9532 20.9286L28.2282 30.2001C28.2554 30.2273 28.2876 30.2489 28.3232 30.2636C28.3587 30.2783 28.3968 30.2859 28.4353 30.2859C28.4738 30.2859 28.5119 30.2783 28.5474 30.2636C28.583 30.2489 28.6152 30.2273 28.6424 30.2001L30.1996 28.6465C30.2268 28.6193 30.2484 28.587 30.2631 28.5515C30.2778 28.5159 30.2854 28.4778 30.2854 28.4394C30.2854 28.4009 30.2778 28.3628 30.2631 28.3272C30.2484 28.2917 30.2268 28.2594 30.1996 28.2322ZM18.0853 18.0858C16.571 19.5965 14.5639 20.4286 12.4282 20.4286C10.2924 20.4286 8.2853 19.5965 6.77101 18.0858C5.2603 16.5715 4.42815 14.5644 4.42815 12.4286C4.42815 10.2929 5.2603 8.28221 6.77101 6.7715C8.2853 5.26078 10.2924 4.42864 12.4282 4.42864C14.5639 4.42864 16.5746 5.25721 18.0853 6.7715C19.596 8.28578 20.4282 10.2929 20.4282 12.4286C20.4282 14.5644 19.596 16.5751 18.0853 18.0858Z" fill="#A5A5A5"/>
</g>
</svg>
